# xmcd
#
# Track frame offsets: 
#        150
#        16466
#        31953
#        47884
#        69301
#        87684
#        101596
#        118054
#        134018
#        149737
#
# Disc length: 2264 seconds
#
# Revision: 0
# Processed by: cddbd v1.5.2PL0 Copyright (c) Steve Scherf et al.
# Submitted via: ExactAudioCopyFreeDBPlugin 1.0
#
DISCID=9808d60a
DTITLE=ไม้เมือง - ชุดที่ 2 - ขอเดินด้วยคน
DYEAR=1900
DGENRE=เพลงเมืองเหนือ
TTITLE0=ขอเดินด้วยคน
TTITLE1=อยากให้เชื่อในรัก
TTITLE2=อย่าเพิ่งท้อ
TTITLE3=ไปรษณีย์ดาว
TTITLE4=อยากให้อยู่ด้วย
TTITLE5=เป็นเกียรตืกับหัวใจ
TTITLE6=เพิ่งรู้ว่าเหงา
TTITLE7=โปรดอย่าวาดหวัง
TTITLE8=เธอไม่ได้อยู่คนเดียว
TTITLE9=ล้านนาไทย
EXTD=
EXTT0=
EXTT1=
EXTT2=
EXTT3=
EXTT4=
EXTT5=
EXTT6=
EXTT7=
EXTT8=
EXTT9=
PLAYORDER=
